<?xml version="1.0" encoding="UTF-8" standalone="no"?>
<!-- Created with Inkscape (http://www.inkscape.org/) -->

<svg
   xmlns:dc="http://purl.org/dc/elements/1.1/"
   xmlns:cc="http://creativecommons.org/ns#"
   xmlns:rdf="http://www.w3.org/1999/02/22-rdf-syntax-ns#"
   xmlns:svg="http://www.w3.org/2000/svg"
   xmlns="http://www.w3.org/2000/svg"
   xmlns:xlink="http://www.w3.org/1999/xlink"
   xmlns:sodipodi="http://sodipodi.sourceforge.net/DTD/sodipodi-0.dtd"
   xmlns:inkscape="http://www.inkscape.org/namespaces/inkscape"
   version="1.2"
   width="800"
   height="300"
   id="svg2"
   inkscape:version="0.48.4 r9939"
   sodipodi:docname="404.svg">
  <sodipodi:namedview
     pagecolor="#ffffff"
     bordercolor="#666666"
     borderopacity="1"
     objecttolerance="10"
     gridtolerance="10"
     guidetolerance="10"
     inkscape:pageopacity="0"
     inkscape:pageshadow="2"
     inkscape:window-width="1366"
     inkscape:window-height="711"
     id="namedview51"
     showgrid="false"
     inkscape:zoom="0.472"
     inkscape:cx="400"
     inkscape:cy="250"
     inkscape:window-x="-1"
     inkscape:window-y="-1"
     inkscape:window-maximized="1"
     inkscape:current-layer="layer1" />
  <defs
     id="defs4">
    <pattern
       inkscape:collect="always"
       xlink:href="#pattern3008"
       id="pattern3127"
       patternTransform="translate(105.57297,822.38408)" />
    <pattern
       id="pattern3008"
       patternTransform="translate(73.674665,621.35018)"
       height="146.97266"
       width="324.21875"
       patternUnits="userSpaceOnUse">
      <g
         transform="translate(-72.246094,-191.84517)"
         style="font-size:200px;font-style:normal;font-weight:normal;line-height:125%;letter-spacing:0px;word-spacing:0px;fill:#ff0000;fill-opacity:1;stroke:none;font-family:Sans"
         id="flowRoot2993">
        <path
           d="m 176.15234,304.83345 -20.80078,0 0,32.03125 -17.1875,0 0,-32.03125 -65.917966,0 0,-15.52734 64.746096,-95.99609 18.35937,0 0,95.3125 20.80078,0 0,16.21093 m -37.98828,-16.21093 0,-34.76563 c -7e-5,-3.64574 0.0325,-7.45433 0.0977,-11.42578 0.13014,-4.03636 0.26035,-7.9426 0.39062,-11.71875 0.13014,-3.84103 0.26035,-7.42176 0.39063,-10.74219 0.19524,-3.32019 0.32545,-6.08711 0.39062,-8.30078 l -0.8789,0 c -0.4558,1.30221 -1.04174,2.76705 -1.75782,4.39453 -0.6511,1.56262 -1.3998,3.15767 -2.24609,4.78516 -0.78131,1.56261 -1.59511,3.09256 -2.44141,4.58984 -0.84641,1.49751 -1.62766,2.76704 -2.34375,3.8086 l -40.136714,59.375 48.535154,0"
           style="fill:#ff0000"
           id="path3002" />
        <path
           d="m 280.9375,265.28267 c -10e-5,11.5235 -0.84645,21.8425 -2.53906,30.95703 -1.6277,9.11462 -4.29697,16.82946 -8.00782,23.14454 -3.64591,6.31511 -8.36596,11.13281 -14.16015,14.45312 -5.79434,3.32031 -12.82559,4.98047 -21.09375,4.98047 -7.68234,0 -14.38806,-1.66016 -20.11719,-4.98047 -5.66409,-3.32031 -10.38414,-8.13801 -14.16016,-14.45312 -3.71095,-6.31508 -6.51043,-14.02992 -8.39843,-23.14454 -1.82293,-9.11453 -2.73439,-19.43353 -2.73438,-30.95703 -1e-5,-11.52335 0.81379,-21.84235 2.44141,-30.95703 1.69269,-9.11447 4.32941,-16.79675 7.91015,-23.04687 3.64581,-6.31497 8.33331,-11.13268 14.0625,-14.45313 5.79424,-3.32017 12.79293,-4.98032 20.9961,-4.98047 7.74733,1.5e-4 14.48561,1.6603 20.21484,4.98047 5.72909,3.25535 10.48169,8.0405 14.25781,14.35547 3.77595,6.25012 6.60798,13.9324 8.4961,23.04688 1.88792,9.11467 2.83193,19.46623 2.83203,31.05468 m -73.14453,0 c -3e-5,9.76569 0.48825,18.29433 1.46484,25.58594 0.97653,7.29171 2.53903,13.37894 4.6875,18.26172 2.1484,4.81773 4.94788,8.46356 8.39844,10.9375 3.51558,2.40887 7.7799,3.61329 12.79297,3.61328 5.01296,1e-5 9.27728,-1.20441 12.79297,-3.61328 3.51555,-2.40884 6.38013,-6.02211 8.59375,-10.83984 2.27856,-4.81768 3.90617,-10.87236 4.88281,-18.16407 1.04158,-7.35671 1.56242,-15.95046 1.5625,-25.78125 -8e-5,-9.76554 -0.52092,-18.29418 -1.5625,-25.58593 -0.97664,-7.29157 -2.60425,-13.34625 -4.88281,-18.16407 -2.21362,-4.81758 -5.0782,-8.43086 -8.59375,-10.83984 -3.51569,-2.40873 -7.78001,-3.61315 -12.79297,-3.61328 -5.01307,1.3e-4 -9.27739,1.20455 -12.79297,3.61328 -3.45056,2.40898 -6.25004,6.02226 -8.39844,10.83984 -2.14847,4.81782 -3.71097,10.8725 -4.6875,18.16407 -0.97659,7.29175 -1.46487,15.82039 -1.46484,25.58593"
           style="fill:#ff0000"
           id="path3004" />
        <path
           d="m 396.46484,304.83345 -20.80078,0 0,32.03125 -17.1875,0 0,-32.03125 -65.91797,0 0,-15.52734 64.7461,-95.99609 18.35937,0 0,95.3125 20.80078,0 0,16.21093 m -37.98828,-16.21093 0,-34.76563 c -7e-5,-3.64574 0.0325,-7.45433 0.0977,-11.42578 0.13014,-4.03636 0.26035,-7.9426 0.39062,-11.71875 0.13014,-3.84103 0.26035,-7.42176 0.39063,-10.74219 0.19524,-3.32019 0.32545,-6.08711 0.39062,-8.30078 l -0.8789,0 c -0.4558,1.30221 -1.04174,2.76705 -1.75782,4.39453 -0.6511,1.56262 -1.3998,3.15767 -2.24609,4.78516 -0.78131,1.56261 -1.59511,3.09256 -2.44141,4.58984 -0.84641,1.49751 -1.62766,2.76704 -2.34375,3.8086 l -40.13671,59.375 48.53515,0"
           style="fill:#ff0000"
           id="path3006" />
      </g>
    </pattern>
    <filter
       color-interpolation-filters="sRGB"
       id="filter3050">
      <feFlood
         result="flood"
         flood-color="rgb(0,0,0)"
         flood-opacity="0.5"
         id="feFlood3052" />
      <feComposite
         in2="SourceGraphic"
         operator="in"
         in="flood"
         result="composite1"
         id="feComposite3054" />
      <feGaussianBlur
         result="blur"
         stdDeviation="2"
         id="feGaussianBlur3056" />
      <feOffset
         result="offset"
         dy="4"
         dx="4"
         id="feOffset3058" />
      <feComposite
         in2="offset"
         operator="over"
         in="SourceGraphic"
         result="fbSourceGraphic"
         id="feComposite3060" />
      <feColorMatrix
         id="feColorMatrix3086"
         values="0 0 0 -1 0 0 0 0 -1 0 0 0 0 -1 0 0 0 0 1 0"
         in="fbSourceGraphic"
         result="fbSourceGraphicAlpha" />
      <feFlood
         in="fbSourceGraphic"
         result="flood"
         flood-color="rgb(0,0,0)"
         flood-opacity="0.6"
         id="feFlood3088" />
      <feComposite
         in2="fbSourceGraphic"
         operator="in"
         in="flood"
         result="composite1"
         id="feComposite3090" />
      <feGaussianBlur
         result="blur"
         stdDeviation="2"
         id="feGaussianBlur3092" />
      <feOffset
         result="offset"
         dy="4"
         dx="6"
         id="feOffset3094" />
      <feComposite
         in2="offset"
         operator="over"
         in="fbSourceGraphic"
         result="fbSourceGraphic"
         id="feComposite3096" />
      <feColorMatrix
         id="feColorMatrix3098"
         values="0 0 0 -1 0 0 0 0 -1 0 0 0 0 -1 0 0 0 0 1 0"
         in="fbSourceGraphic"
         result="fbSourceGraphicAlpha" />
      <feFlood
         in="fbSourceGraphic"
         result="flood"
         flood-color="rgb(0,0,0)"
         flood-opacity="0.6"
         id="feFlood3100" />
      <feComposite
         in2="fbSourceGraphic"
         operator="in"
         in="flood"
         result="composite1"
         id="feComposite3102" />
      <feGaussianBlur
         result="blur"
         stdDeviation="2"
         id="feGaussianBlur3104" />
      <feOffset
         result="offset"
         dy="4"
         dx="6"
         id="feOffset3106" />
      <feComposite
         in2="offset"
         operator="over"
         in="fbSourceGraphic"
         result="composite2"
         id="feComposite3108" />
    </filter>
    <filter
       color-interpolation-filters="sRGB"
       id="filter3970">
      <feFlood
         result="flood"
         flood-color="rgb(0,0,0)"
         flood-opacity="0.6"
         id="feFlood3972" />
      <feComposite
         in2="SourceGraphic"
         operator="in"
         in="flood"
         result="composite1"
         id="feComposite3974" />
      <feGaussianBlur
         result="blur"
         stdDeviation="2"
         id="feGaussianBlur3976" />
      <feOffset
         result="offset"
         dy="4"
         dx="6"
         id="feOffset3978" />
      <feComposite
         in2="offset"
         operator="over"
         in="SourceGraphic"
         result="composite2"
         id="feComposite3980" />
    </filter>
    <pattern
       patternUnits="userSpaceOnUse"
       width="333.78412"
       height="56.808"
       patternTransform="translate(367.61164,860.93026)"
       id="pattern3028">
      <flowRoot
         style="font-size:40px;font-style:normal;font-weight:normal;line-height:125%;letter-spacing:0px;word-spacing:0px;fill:#000000;fill-opacity:1;stroke:none;font-family:Sans"
         xml:space="preserve"
         id="flowRoot3110"
         transform="translate(-274.7545,-308.56811)"><flowRegion
           id="flowRegion3112"><rect
             id="rect3114"
             y="291.42856"
             x="268.57144"
             height="154.28572"
             width="454.28571" /></flowRegion><flowPara
           style="font-size:72px"
           id="flowPara3116">Not Found</flowPara></flowRoot>    </pattern>
  </defs>
  <metadata
     id="metadata7">
    <rdf:RDF>
      <cc:Work
         rdf:about="">
        <dc:format>image/svg+xml</dc:format>
        <dc:type
           rdf:resource="http://purl.org/dc/dcmitype/StillImage" />
        <dc:title />
      </cc:Work>
    </rdf:RDF>
  </metadata>
  <g
     transform="translate(0,-752.36215)"
     id="layer1">
    <rect
       width="324.21875"
       height="146.97266"
       x="105.57298"
       y="822.38403"
       id="rect3014"
       style="fill:url(#pattern3127);stroke:none;filter:url(#filter3050)" />
    <g
       id="g3946"
       style="filter:url(#filter3970)"
       transform="translate(31.898305,201.0339)">
      <g
         id="g3144"
         style="fill:#ff0000;fill-opacity:1;stroke:#000000;stroke-opacity:1">
        <path
           d="M 575.71429,50 462.85714,250"
           transform="translate(0,552.36215)"
           id="path3130"
           style="fill:#ff0000;fill-opacity:1;stroke:#000000;stroke-width:1px;stroke-linecap:butt;stroke-linejoin:miter;stroke-opacity:1"
           inkscape:connector-curvature="0" />
        <path
           d="M 575.71429,50 680,250 462.85714,250"
           transform="translate(0,552.36215)"
           id="path3132"
           style="fill:#ff0000;fill-opacity:1;stroke:#000000;stroke-width:1px;stroke-linecap:butt;stroke-linejoin:miter;stroke-opacity:1"
           inkscape:connector-curvature="0" />
        <path
           d="M 575.71429,50 680,250 462.85714,250"
           transform="translate(0,552.36215)"
           id="path3142"
           style="fill:#ff0000;fill-opacity:1;stroke:#000000;stroke-width:1px;stroke-linecap:butt;stroke-linejoin:miter;stroke-opacity:1"
           inkscape:connector-curvature="0" />
      </g>
      <g
         transform="matrix(0.81520967,0,0,0.81520967,105.59448,135.78974)"
         id="g3149"
         style="fill:#ffff00;fill-opacity:1">
        <path
           d="M 575.71429,50 462.85714,250"
           transform="translate(0,552.36215)"
           id="path3151"
           style="fill:#ffff00;fill-opacity:1;stroke:#000000;stroke-width:1px;stroke-linecap:butt;stroke-linejoin:miter;stroke-opacity:1"
           inkscape:connector-curvature="0" />
        <path
           d="M 575.71429,50 680,250 462.85714,250"
           transform="translate(0,552.36215)"
           id="path3153"
           style="fill:#ffff00;fill-opacity:1;stroke:#000000;stroke-width:1px;stroke-linecap:butt;stroke-linejoin:miter;stroke-opacity:1"
           inkscape:connector-curvature="0" />
        <path
           d="M 575.71429,50 680,250 462.85714,250"
           transform="translate(0,552.36215)"
           id="path3155"
           style="fill:#ffff00;fill-opacity:1;stroke:#000000;stroke-width:1px;stroke-linecap:butt;stroke-linejoin:miter;stroke-opacity:1"
           inkscape:connector-curvature="0" />
      </g>
      <text
         x="544.68414"
         y="779.19366"
         id="text3138"
         xml:space="preserve"
         style="font-size:40px;font-style:normal;font-weight:normal;line-height:125%;letter-spacing:0px;word-spacing:0px;fill:#000000;fill-opacity:1;stroke:none;font-family:Sans"
         sodipodi:linespacing="125%"><tspan
           x="544.68414"
           y="779.19366"
           id="tspan3140"
           style="font-size:144px">?</tspan></text>
    </g>
  </g>
</svg>
