<?xml version="1.0" encoding="UTF-8" standalone="no"?>
<!-- Created with Inkscape (http://www.inkscape.org/) -->

<svg
   xmlns:dc="http://purl.org/dc/elements/1.1/"
   xmlns:cc="http://creativecommons.org/ns#"
   xmlns:rdf="http://www.w3.org/1999/02/22-rdf-syntax-ns#"
   xmlns:svg="http://www.w3.org/2000/svg"
   xmlns="http://www.w3.org/2000/svg"
   xmlns:sodipodi="http://sodipodi.sourceforge.net/DTD/sodipodi-0.dtd"
   xmlns:inkscape="http://www.inkscape.org/namespaces/inkscape"
   width="398.58771"
   height="201.97183"
   id="svg2"
   version="1.1"
   inkscape:version="0.48.4 r9939"
   sodipodi:docname="KLVer.svg">
  <defs
     id="defs4">
    <filter
       id="filter4454"
       style="color-interpolation-filters:sRGB;"
       inkscape:label="Drop Shadow">
      <feFlood
         id="feFlood4456"
         flood-opacity="0.65"
         flood-color="rgb(0,0,0)"
         result="flood" />
      <feComposite
         id="feComposite4458"
         in2="SourceGraphic"
         in="flood"
         operator="in"
         result="composite1" />
      <feGaussianBlur
         id="feGaussianBlur4460"
         in="composite"
         stdDeviation="1.5"
         result="blur" />
      <feOffset
         id="feOffset4462"
         dx="3"
         dy="3"
         result="offset" />
      <feComposite
         id="feComposite4464"
         in2="offset"
         in="SourceGraphic"
         operator="over"
         result="composite2" />
    </filter>
  </defs>
  <sodipodi:namedview
     id="base"
     pagecolor="#ffffff"
     bordercolor="#666666"
     borderopacity="1.0"
     inkscape:pageopacity="0.0"
     inkscape:pageshadow="2"
     inkscape:zoom="2"
     inkscape:cx="70.685341"
     inkscape:cy="85.233596"
     inkscape:document-units="px"
     inkscape:current-layer="layer1"
     showgrid="false"
     showguides="true"
     inkscape:guide-bbox="true"
     inkscape:window-width="1366"
     inkscape:window-height="718"
     inkscape:window-x="0"
     inkscape:window-y="0"
     inkscape:window-maximized="1"
     fit-margin-top="5"
     fit-margin-bottom="5"
     fit-margin-left="5"
     fit-margin-right="5">
    <sodipodi:guide
       orientation="1,0"
       position="-194.7366,717.29332"
       id="guide3065" />
    <sodipodi:guide
       orientation="0,1"
       position="355.54911,370.15042"
       id="guide3067" />
    <sodipodi:guide
       orientation="1,0"
       position="412.40625,693.72185"
       id="guide3069" />
  </sodipodi:namedview>
  <metadata
     id="metadata7">
    <rdf:RDF>
      <cc:Work
         rdf:about="">
        <dc:format>image/svg+xml</dc:format>
        <dc:type
           rdf:resource="http://purl.org/dc/dcmitype/StillImage" />
        <dc:title />
      </cc:Work>
    </rdf:RDF>
  </metadata>
  <g
     inkscape:label="Layer 1"
     inkscape:groupmode="layer"
     id="layer1"
     style="display:inline"
     transform="translate(-190.45089,-550.54075)">
    <g
       id="g3123"
       transform="matrix(2.2329619,0,0,2.2329619,-392.82491,351.13374)"
       style="filter:url(#filter4454)">
      <g
         id="flowRoot2985"
         style="font-size:40px;font-style:normal;font-weight:normal;line-height:125%;letter-spacing:0px;word-spacing:0px;fill:#000000;fill-opacity:1;stroke:none;font-family:Sans"
         transform="translate(172.85714,30)">
        <path
           sodipodi:nodetypes="ccccccccccszccccczsccccccc"
           inkscape:connector-curvature="0"
           id="path3030"
           style="font-size:72px;font-variant:normal;font-stretch:normal;font-family:Droid Sans;-inkscape-font-specification:Droid Sans"
           d="m 125.1875,146.95009 -3.65625,0 -3.65625,0 -7.875,-12.23437 -7.875,-12.23438 -2.53125,3.15748 -2.53125,3.15747 0,18.1538 -6.46875,0 0,-42.73096 c 0,0 0.561356,-12.661641 11.57616,-23.620176 12.90103,-12.835114 32.14276,-19.058201 52.11581,-19.058201 19.97304,0 42.37903,8.155016 59.46927,23.117501 l 5.31667,-10.690941 2.28323,25.033715 -23.05117,-6.327151 10.82136,-4.252137 c -6.86131,-6.341731 -28.59609,-21.261826 -54.83936,-21.261826 -26.24327,0 -38.68179,9.755038 -42.49865,12.611402 C 96.718671,91.047827 97.0625,104.19264 97.0625,104.19264 l 0,17.1637 20.25,-25.874997 7.3125,0 -18.28125,22.499997 9.42187,14.48438 9.42188,14.48437" />
        <path
           inkscape:connector-curvature="0"
           id="path3032"
           style="font-size:72px;font-variant:normal;font-stretch:normal;font-family:Droid Sans;-inkscape-font-specification:Droid Sans"
           d="m 132.35937,146.95009 0,-51.468747 6.46875,0 0,45.562497 20.25,0 0,5.90625 -26.71875,0" />
        <path
           inkscape:connector-curvature="0"
           id="path3034"
           style="font-size:72px;font-variant:normal;font-stretch:normal;font-family:Droid Sans;-inkscape-font-specification:Droid Sans"
           d="m 191.91406,95.481343 6.75,0 -17.15625,51.468747 -6.46875,0 -17.15625,-51.468747 7.03125,0 10.40625,32.624997 c 0.93748,3.18752 1.96873,7.12502 3.09375,11.8125 0.56248,-3.37499 1.59373,-7.40623 3.09375,-12.09375 l 10.40625,-32.343747" />
        <path
           inkscape:connector-curvature="0"
           id="path3036"
           style="fill:#00ff00"
           d="m 233.67969,128.95009 -24.1875,0 c -1e-5,4.31252 0.84374,7.59376 2.53125,9.84375 1.87498,2.25001 4.59373,3.37501 8.15625,3.375 4.12497,1e-5 8.06247,-0.93749 11.8125,-2.8125 l 0,5.625 c -3.56253,1.6875 -7.50003,2.53125 -11.8125,2.53125 -5.25002,0 -9.46876,-1.6875 -12.65625,-5.0625 -3.18751,-3.37499 -4.78126,-8.24998 -4.78125,-14.625 -1e-5,-6.37497 1.49999,-11.34372 4.5,-14.90625 2.99999,-3.56246 6.84373,-5.34371 11.53125,-5.34375 4.49997,4e-5 8.06247,1.59379 10.6875,4.78125 2.81246,3.00003 4.21871,7.21878 4.21875,12.65625 l 0,3.9375 m -24.1875,-5.34375 17.4375,0 c -3e-5,-3.56247 -0.75003,-6.18747 -2.25,-7.875 -1.31253,-1.87496 -3.37503,-2.81246 -6.1875,-2.8125 -5.43752,4e-5 -8.43751,3.56253 -9,10.6875" />
        <path
           inkscape:connector-curvature="0"
           id="path3038"
           style="font-size:72px;font-variant:normal;font-stretch:normal;font-family:Droid Sans;-inkscape-font-specification:Droid Sans"
           d="m 264.61719,107.85634 -0.84375,5.90625 c -1.50003,-0.18746 -2.81253,-0.28121 -3.9375,-0.28125 -2.81252,4e-5 -5.15627,1.12504 -7.03125,3.375 -1.87502,2.25003 -2.81252,5.34378 -2.8125,9.28125 l 0,20.8125 -6.46875,0 0,-38.53125 5.0625,0 0.84375,7.03125 0.28125,0 c 2.99998,-5.24996 6.46873,-7.87496 10.40625,-7.875 1.68747,4e-5 3.18747,0.0938 4.5,0.28125" />
      </g>
    </g>
  </g>
</svg>
